<svg id="Capa_1" enable-background="new 0 0 512.036 512.036" height="512" viewBox="0 0 512.036 512.036" width="512" xmlns="http://www.w3.org/2000/svg"><g><g><g><path d="m253.489 181.459v99.195c0 9.731 7.888 17.619 17.619 17.619h125.149c4.536 0 8.924 1.613 12.379 4.55l51.762 43.998c3.693 3.139 9.369.514 9.369-4.333v-38.529c0-3.14 2.546-5.686 5.686-5.686h11.394c9.731 0 17.619-7.888 17.619-17.619v-99.195c0-9.731-7.888-17.619-17.619-17.619h-215.74c-9.73-.001-17.618 7.888-17.618 17.619z" fill="#d1f19e"/></g></g><g><g><path d="m504.463 181.458v99.199c0 9.73-7.882 17.612-17.612 17.612h-11.399c-3.137 0-5.684 2.547-5.684 5.694v38.521c0 4.855-5.674 7.472-9.37 4.335l-10.609-9.021v-33.836c0-3.147 2.547-5.694 5.684-5.694h11.399c9.73 0 17.612-7.882 17.612-17.612v-99.199c0-9.73-7.882-17.622-17.612-17.622h19.98c9.729.001 17.611 7.893 17.611 17.623z" fill="#bbec6c"/></g></g><g><g><path d="m258.547 25.112v99.195c0 9.731-7.888 17.619-17.619 17.619h-125.149c-4.536 0-8.924 1.613-12.379 4.55l-51.762 43.998c-3.693 3.139-9.369.514-9.369-4.333v-38.529c0-3.14-2.546-5.686-5.686-5.686h-11.395c-9.731 0-17.619-7.888-17.619-17.619v-99.195c0-9.731 7.888-17.619 17.619-17.619h215.74c9.731-.001 17.619 7.888 17.619 17.619z" fill="#99e6fc"/></g></g><g><g><path d="m258.547 337.805v99.195c0 9.731-7.888 17.619-17.619 17.619h-125.149c-4.536 0-8.924 1.613-12.379 4.55l-51.762 43.998c-3.693 3.139-9.369.514-9.369-4.333v-38.529c0-3.14-2.546-5.686-5.686-5.686h-11.395c-9.731 0-17.619-7.888-17.619-17.619v-99.195c0-9.731 7.888-17.619 17.619-17.619h215.74c9.731 0 17.619 7.888 17.619 17.619z" fill="#99e6fc"/></g></g><g><g><path d="m95.803 141.929h19.98c-4.535 0-8.931 1.608-12.388 4.545l-51.757 44.005c-3.696 3.137-9.37.509-9.37-4.335v-4.685l41.148-34.984c3.456-2.938 7.852-4.546 12.387-4.546z" fill="#62dbfb"/></g><g><path d="m258.547 25.107v99.199c0 9.73-7.892 17.622-17.622 17.622h-19.98c9.73 0 17.622-7.892 17.622-17.622v-99.199c0-9.73-7.892-17.612-17.622-17.612h19.98c9.73 0 17.622 7.882 17.622 17.612z" fill="#62dbfb"/></g></g><g><g><path d="m95.803 454.62h19.98c-4.535 0-8.931 1.608-12.388 4.545l-51.757 44.005c-3.696 3.137-9.37.509-9.37-4.335v-4.685l41.148-34.984c3.456-2.937 7.852-4.546 12.387-4.546z" fill="#62dbfb"/></g><g><path d="m258.547 337.809v99.189c0 9.73-7.892 17.622-17.622 17.622h-19.98c9.73 0 17.622-7.892 17.622-17.622v-99.189c0-9.73-7.892-17.622-17.622-17.622h19.98c9.73 0 17.622 7.892 17.622 17.622z" fill="#62dbfb"/></g></g><g><path d="m101.988 116.191c0-9.974-5.226-18.723-13.087-23.669-2.958-1.861-4.752-5.11-4.752-8.605v-.001c0-3.21 1.523-6.219 4.088-8.148 6.239-4.695 10.079-12.406 9.351-20.968-.978-11.496-10.366-20.72-21.877-21.514-13.816-.953-25.32 9.972-25.32 23.584 0 7.763 3.743 14.65 9.521 18.96 2.544 1.897 4.006 4.914 4.006 8.088 0 3.495-1.794 6.744-4.753 8.605-7.861 4.946-13.087 13.695-13.087 23.669h55.91z" fill="#f2fbff"/></g><g><path d="m101.988 428.884c0-9.974-5.226-18.723-13.087-23.669-2.958-1.861-4.752-5.11-4.752-8.605v-.001c0-3.21 1.523-6.219 4.088-8.148 6.239-4.695 10.079-12.406 9.351-20.968-.978-11.497-10.365-20.72-21.876-21.515-13.816-.953-25.32 9.972-25.32 23.584 0 7.763 3.743 14.65 9.521 18.96 2.544 1.897 4.006 4.914 4.006 8.088 0 3.495-1.794 6.744-4.753 8.605-7.861 4.946-13.087 13.695-13.087 23.669z" fill="#f2fbff"/></g><g><path d="m101.988 428.884h-19.98c0-7.35-2.952-14.43-8.095-19.665-4.873-4.959-7.141-9.916-5.691-17.249.89-4.502 3.831-6.443 6.027-10.098 2.235-3.721 3.453-7.959 3.453-12.307 0-9.48-5.584-17.662-13.636-21.428 2.557-1.199 5.355-1.958 8.292-2.158 13.816-.949 25.324 9.97 25.324 23.586 0 7.762-3.746 14.655-9.52 18.961-2.547 1.898-4.006 4.915-4.006 8.092 0 1.738.449 3.426 1.269 4.915.809 1.479 1.998 2.757 3.476 3.686 7.862 4.945 13.087 13.696 13.087 23.665z" fill="#dff6fd"/></g><g><path d="m101.988 116.191h-19.98c0-7.35-2.952-14.43-8.095-19.665-4.873-4.959-7.141-9.916-5.691-17.249.89-4.502 3.831-6.443 6.027-10.098 2.235-3.721 3.453-7.959 3.453-12.307 0-9.48-5.584-17.662-13.636-21.428 2.557-1.199 5.355-1.958 8.292-2.158 13.816-.949 25.324 9.97 25.324 23.586 0 7.762-3.746 14.655-9.52 18.961-2.547 1.898-4.006 4.915-4.006 8.092 0 1.738.449 3.426 1.269 4.915.809 1.479 1.998 2.757 3.476 3.686 7.862 4.944 13.087 13.695 13.087 23.665z" fill="#dff6fd"/></g><g><path d="m410.048 272.538c0-9.974 5.226-18.723 13.087-23.669 2.958-1.861 4.753-5.11 4.753-8.605v-.001c0-3.21-1.523-6.219-4.088-8.148-6.239-4.695-10.079-12.406-9.351-20.968.978-11.497 10.365-20.72 21.876-21.515 13.816-.953 25.32 9.972 25.32 23.584 0 7.763-3.743 14.65-9.521 18.96-2.544 1.897-4.006 4.914-4.006 8.088 0 3.495 1.794 6.744 4.753 8.605 7.861 4.946 13.087 13.695 13.087 23.669z" fill="#f2fbff"/></g><g><path d="m465.952 272.536h-19.98c0-7.35-2.952-14.43-8.095-19.665-4.872-4.959-7.141-9.916-5.691-17.249.89-4.502 3.831-6.443 6.027-10.098 2.236-3.721 3.453-7.959 3.453-12.307 0-9.48-5.584-17.662-13.636-21.428 2.557-1.199 5.355-1.958 8.292-2.158 13.816-.949 25.324 9.97 25.324 23.586 0 7.762-3.746 14.655-9.52 18.961-2.547 1.898-4.006 4.915-4.006 8.092 0 1.738.449 3.426 1.269 4.915.809 1.479 1.998 2.757 3.476 3.686 7.863 4.944 13.087 13.695 13.087 23.665z" fill="#dff6fd"/></g><g><path d="m504.467 245.618c4.138 0 7.492-3.354 7.492-7.492v-56.667c0-13.847-11.265-25.112-25.111-25.112h-215.74c-13.846 0-25.111 11.265-25.111 25.112v99.195c0 13.846 11.265 25.111 25.111 25.111h125.149c2.754 0 5.427.982 7.527 2.768l51.762 43.996c2.452 2.084 5.449 3.16 8.498 3.16 1.876 0 3.772-.408 5.569-1.239 4.717-2.18 7.647-6.765 7.647-11.962v-36.723h9.589c13.846 0 25.111-11.265 25.111-25.111v-8.119c0-4.138-3.354-7.492-7.492-7.492s-7.492 3.354-7.492 7.492v8.119c0 5.584-4.542 10.126-10.126 10.126h-11.395c-7.267 0-13.179 5.912-13.179 13.179v34.623l-48.786-41.467c-4.806-4.086-10.925-6.335-17.231-6.335h-125.151c-5.584 0-10.126-4.542-10.126-10.126v-99.195c0-5.584 4.542-10.127 10.126-10.127h215.74c5.584 0 10.126 4.543 10.126 10.127v56.667c0 4.138 3.354 7.492 7.493 7.492z"/><path d="m25.188 149.418h9.588v36.723c0 5.197 2.93 9.78 7.647 11.961 1.797.831 3.693 1.239 5.569 1.239 3.048 0 6.047-1.076 8.498-3.159l51.762-43.997c2.099-1.785 4.772-2.768 7.527-2.768h56.584c4.138 0 7.492-3.354 7.492-7.492s-3.354-7.492-7.492-7.492h-56.584c-6.306 0-12.426 2.25-17.232 6.334l-48.786 41.469v-34.624c0-7.267-5.912-13.179-13.178-13.179h-11.395c-5.584 0-10.127-4.542-10.127-10.126v-99.195c0-5.584 4.543-10.127 10.127-10.127h215.74c5.584 0 10.127 4.543 10.127 10.127v99.195c0 5.584-4.543 10.126-10.127 10.126h-33.912c-4.138 0-7.492 3.354-7.492 7.492s3.354 7.492 7.492 7.492h33.912c13.847 0 25.112-11.265 25.112-25.111v-99.194c0-13.847-11.265-25.112-25.112-25.112h-215.74c-13.847 0-25.112 11.265-25.112 25.112v99.195c0 13.846 11.265 25.111 25.112 25.111z"/><path d="m240.928 312.694h-215.74c-13.847 0-25.112 11.265-25.112 25.112v99.195c0 13.846 11.265 25.111 25.112 25.111h9.588v36.723c0 5.197 2.93 9.78 7.647 11.961 1.797.831 3.693 1.239 5.569 1.239 3.048 0 6.047-1.076 8.498-3.159l51.762-43.997c2.099-1.785 4.772-2.768 7.527-2.768h125.149c13.847 0 25.112-11.265 25.112-25.111v-99.195c0-13.847-11.265-25.111-25.112-25.111zm10.127 124.307c0 5.584-4.543 10.126-10.127 10.126h-125.149c-6.306 0-12.426 2.25-17.232 6.334l-48.786 41.469v-34.624c0-7.267-5.912-13.179-13.178-13.179h-11.395c-5.584 0-10.127-4.542-10.127-10.126v-99.195c0-5.584 4.543-10.127 10.127-10.127h215.74c5.584 0 10.127 4.543 10.127 10.127z"/><path d="m55.176 86.181c-10.388 6.535-16.59 17.754-16.59 30.01 0 4.138 3.354 7.492 7.492 7.492h55.909c4.138 0 7.492-3.354 7.492-7.492 0-12.256-6.202-23.475-16.59-30.01-.783-.493-1.25-1.339-1.25-2.264 0-.848.401-1.635 1.1-2.162 8.627-6.491 13.229-16.805 12.312-27.589-1.286-15.119-13.679-27.31-28.826-28.355-8.735-.605-17.057 2.344-23.434 8.295-6.288 5.869-9.894 14.166-9.894 22.764 0 9.779 4.686 19.112 12.534 24.966.622.464.993 1.242.993 2.082.002.924-.465 1.77-1.248 2.263zm9.216-16.357c-4.136-3.085-6.508-7.807-6.508-12.955 0-4.526 1.823-8.72 5.134-11.809 3.306-3.087 7.629-4.624 12.178-4.3 7.844.541 14.261 6.85 14.926 14.676.478 5.612-1.912 10.975-6.39 14.346-4.43 3.333-7.075 8.618-7.075 14.136 0 6.106 3.086 11.694 8.255 14.946 3.784 2.381 6.606 5.835 8.176 9.836h-38.108c1.57-4.001 4.392-7.455 8.176-9.836 5.169-3.253 8.254-8.84 8.254-14.946.001-5.548-2.623-10.816-7.018-14.094z"/><path d="m220.038 33.108h-87.453c-4.138 0-7.492 3.354-7.492 7.492s3.354 7.492 7.492 7.492h87.453c4.138 0 7.492-3.354 7.492-7.492s-3.355-7.492-7.492-7.492z"/><path d="m220.038 67.217h-27.559c-4.138 0-7.492 3.354-7.492 7.492s3.354 7.492 7.492 7.492h27.559c4.138 0 7.492-3.354 7.492-7.492s-3.355-7.492-7.492-7.492z"/><path d="m132.585 82.202h25.036c4.138 0 7.492-3.354 7.492-7.492s-3.354-7.492-7.492-7.492h-25.036c-4.138 0-7.492 3.354-7.492 7.492s3.354 7.492 7.492 7.492z"/><path d="m132.585 116.311h87.453c4.138 0 7.492-3.354 7.492-7.492s-3.354-7.492-7.492-7.492h-87.453c-4.138 0-7.492 3.354-7.492 7.492s3.354 7.492 7.492 7.492z"/><path d="m92.891 398.874c-.783-.493-1.25-1.339-1.25-2.264 0-.848.401-1.635 1.1-2.162 8.627-6.491 13.229-16.805 12.312-27.589-1.286-15.119-13.679-27.31-28.826-28.355-8.735-.598-17.057 2.343-23.434 8.295-6.288 5.869-9.894 14.166-9.894 22.764 0 9.779 4.686 19.112 12.534 24.966.622.464.993 1.242.993 2.082 0 .925-.467 1.771-1.25 2.263-10.388 6.535-16.59 17.754-16.59 30.01 0 4.138 3.354 7.492 7.492 7.492h55.909c4.138 0 7.492-3.354 7.492-7.492.002-12.255-6.2-23.474-16.588-30.01zm-37.911 22.519c1.57-4.001 4.392-7.455 8.176-9.836 5.169-3.253 8.254-8.84 8.254-14.946 0-5.547-2.624-10.815-7.019-14.093-4.136-3.085-6.508-7.807-6.508-12.955 0-4.526 1.823-8.72 5.134-11.809 3.306-3.088 7.629-4.618 12.178-4.3 7.844.54 14.261 6.85 14.926 14.676.478 5.612-1.912 10.975-6.39 14.346-4.43 3.333-7.075 8.618-7.075 14.136 0 6.106 3.086 11.694 8.255 14.946 3.784 2.381 6.606 5.835 8.176 9.836h-38.107z"/><path d="m220.038 345.802h-43.727c-4.138 0-7.492 3.354-7.492 7.492s3.354 7.492 7.492 7.492h43.727c4.138 0 7.492-3.354 7.492-7.492s-3.355-7.492-7.492-7.492z"/><path d="m141.818 345.802h-9.234c-4.138 0-7.492 3.354-7.492 7.492s3.354 7.492 7.492 7.492h9.234c4.138 0 7.492-3.354 7.492-7.492s-3.354-7.492-7.492-7.492z"/><path d="m220.038 379.91h-43.727c-4.138 0-7.492 3.354-7.492 7.492s3.354 7.492 7.492 7.492h43.727c4.138 0 7.492-3.354 7.492-7.492s-3.355-7.492-7.492-7.492z"/><path d="m141.818 379.91h-9.234c-4.138 0-7.492 3.354-7.492 7.492s3.354 7.492 7.492 7.492h9.234c4.138 0 7.492-3.354 7.492-7.492.001-4.138-3.354-7.492-7.492-7.492z"/><path d="m220.038 414.019h-43.727c-4.138 0-7.492 3.354-7.492 7.492s3.354 7.492 7.492 7.492h43.727c4.138 0 7.492-3.354 7.492-7.492s-3.355-7.492-7.492-7.492z"/><path d="m141.818 414.019h-9.234c-4.138 0-7.492 3.354-7.492 7.492s3.354 7.492 7.492 7.492h9.234c4.138 0 7.492-3.354 7.492-7.492.001-4.138-3.354-7.492-7.492-7.492z"/><path d="m419.146 242.528c-10.388 6.535-16.59 17.754-16.59 30.01 0 4.138 3.354 7.492 7.492 7.492h55.909c4.138 0 7.492-3.354 7.492-7.492 0-12.256-6.202-23.475-16.59-30.01-.782-.493-1.25-1.338-1.25-2.263 0-.84.371-1.618.993-2.082 7.849-5.854 12.534-15.188 12.534-24.966 0-8.598-3.607-16.895-9.894-22.764-6.375-5.953-14.686-8.901-23.434-8.295-15.148 1.045-27.54 13.235-28.825 28.355-.918 10.783 3.684 21.097 12.312 27.59.698.526 1.099 1.314 1.099 2.162.001.924-.466 1.77-1.248 2.263zm9.159-16.399c-4.479-3.372-6.868-8.734-6.391-14.347.665-7.825 7.083-14.134 14.927-14.675 4.532-.32 8.871 1.214 12.178 4.3 3.31 3.09 5.134 7.284 5.134 11.809 0 5.147-2.373 9.869-6.508 12.955-4.395 3.277-7.019 8.546-7.019 14.093 0 6.106 3.086 11.693 8.254 14.946 3.784 2.381 6.606 5.835 8.175 9.836h-38.105c1.569-4.001 4.392-7.454 8.175-9.836 5.169-3.252 8.254-8.84 8.254-14.947.001-5.518-2.644-10.801-7.074-14.134z"/><path d="m291.999 204.439h36.87c4.138 0 7.492-3.354 7.492-7.492s-3.354-7.492-7.492-7.492h-36.87c-4.138 0-7.492 3.354-7.492 7.492-.001 4.138 3.353 7.492 7.492 7.492z"/><path d="m379.452 189.455h-15.689c-4.138 0-7.492 3.354-7.492 7.492s3.354 7.492 7.492 7.492h15.689c4.138 0 7.492-3.354 7.492-7.492s-3.354-7.492-7.492-7.492z"/><path d="m379.452 223.563h-87.453c-4.138 0-7.492 3.354-7.492 7.492s3.354 7.492 7.492 7.492h87.453c4.138 0 7.492-3.354 7.492-7.492s-3.354-7.492-7.492-7.492z"/><path d="m379.452 257.672h-87.453c-4.138 0-7.492 3.354-7.492 7.492s3.354 7.492 7.492 7.492h87.453c4.138 0 7.492-3.354 7.492-7.492s-3.354-7.492-7.492-7.492z"/></g></g></svg>