<svg id="Capa_1" enable-background="new 0 0 512.026 512.026" height="512" viewBox="0 0 512.026 512.026" width="512" xmlns="http://www.w3.org/2000/svg"><g><g><path d="m253.407 179.211v102.186c0 10.024 8.126 18.151 18.151 18.151h128.921c4.672 0 9.193 1.661 12.753 4.688l53.322 45.324c3.805 3.234 9.651.53 9.651-4.463v-39.691c0-3.235 2.623-5.858 5.858-5.858h11.738c10.024 0 18.151-8.126 18.151-18.151v-102.186c0-10.024-8.126-18.151-18.151-18.151h-222.243c-10.024 0-18.151 8.127-18.151 18.151z" fill="#d1f19e"/></g><g><path d="m511.948 179.211v102.189c0 10.023-8.12 18.143-18.143 18.143h-11.742c-3.231 0-5.856 2.624-5.856 5.866v39.682c0 5.001-5.845 7.698-9.653 4.466l-10.929-9.293v-34.856c0-3.242 2.624-5.866 5.856-5.866h11.742c10.023 0 18.143-8.12 18.143-18.143v-102.19c0-10.023-8.119-18.153-18.143-18.153h20.582c10.024.001 18.143 8.131 18.143 18.155z" fill="#bbec6c"/></g><g><path d="m258.618 18.151v102.186c0 10.024-8.126 18.151-18.151 18.151h-128.921c-4.672 0-9.193 1.662-12.753 4.688l-53.322 45.324c-3.805 3.234-9.651.53-9.651-4.463v-39.691c0-3.235-2.623-5.858-5.858-5.858h-11.738c-10.024 0-18.151-8.126-18.151-18.151v-102.186c0-10.025 8.127-18.151 18.151-18.151h222.244c10.024 0 18.15 8.126 18.15 18.151z" fill="#99e6fc"/></g><g><path d="m258.618 340.271v102.185c0 10.024-8.126 18.151-18.151 18.151h-128.921c-4.672 0-9.193 1.661-12.753 4.688l-53.322 45.324c-3.805 3.234-9.651.53-9.651-4.463v-39.691c0-3.235-2.623-5.858-5.858-5.858h-11.738c-10.024 0-18.151-8.126-18.151-18.151v-102.185c0-10.024 8.126-18.151 18.151-18.151h222.244c10.024.001 18.15 8.127 18.15 18.151z" fill="#99e6fc"/></g><g fill="#62dbfb"><path d="m90.968 138.489h20.582c-4.672 0-9.2 1.657-12.761 4.682l-53.318 45.332c-3.808 3.232-9.653.525-9.653-4.466v-4.827l42.389-36.039c3.56-3.025 8.089-4.682 12.761-4.682z"/><path d="m258.618 18.146v102.19c0 10.023-8.13 18.153-18.153 18.153h-20.582c10.024 0 18.153-8.13 18.153-18.153v-102.19c0-10.023-8.13-18.143-18.153-18.143h20.582c10.024 0 18.153 8.12 18.153 18.143z"/></g><g fill="#62dbfb"><path d="m90.968 460.608h20.582c-4.672 0-9.2 1.657-12.761 4.682l-53.318 45.332c-3.808 3.232-9.653.525-9.653-4.466v-4.827l42.389-36.039c3.56-3.025 8.089-4.682 12.761-4.682z"/><path d="m258.618 340.275v102.179c0 10.023-8.13 18.153-18.153 18.153h-20.582c10.024 0 18.153-8.13 18.153-18.153v-102.179c0-10.023-8.13-18.153-18.153-18.153h20.582c10.024 0 18.153 8.13 18.153 18.153z"/></g><path d="m97.339 111.976c0-10.275-5.384-19.287-13.482-24.382-3.047-1.917-4.896-5.264-4.896-8.864v-.001c0-3.306 1.569-6.406 4.211-8.394 6.427-4.837 10.383-12.78 9.633-21.6-1.006-11.844-10.677-21.346-22.535-22.164-14.233-.982-26.083 10.273-26.083 24.295 0 7.997 3.855 15.092 9.808 19.532 2.621 1.955 4.127 5.062 4.127 8.332 0 3.6-1.849 6.947-4.896 8.864-8.098 5.095-13.482 14.108-13.482 24.382z" fill="#f2fbff"/><path d="m97.339 434.096c0-10.275-5.384-19.287-13.482-24.382-3.047-1.917-4.896-5.264-4.896-8.864v-.001c0-3.306 1.569-6.406 4.211-8.394 6.427-4.837 10.383-12.78 9.633-21.6-1.007-11.843-10.678-21.345-22.536-22.163-14.233-.982-26.083 10.273-26.083 24.295 0 7.997 3.855 15.092 9.808 19.532 2.621 1.955 4.127 5.062 4.127 8.332 0 3.6-1.849 6.947-4.896 8.864-8.098 5.095-13.482 14.108-13.482 24.382h57.596z" fill="#f2fbff"/><path d="m97.339 434.096h-20.582c0-7.572-3.041-14.865-8.339-20.258-5.019-5.109-7.356-10.215-5.862-17.769.917-4.637 3.947-6.637 6.209-10.403 2.303-3.833 3.558-8.199 3.558-12.678 0-9.766-5.753-18.194-14.047-22.074 2.635-1.235 5.516-2.017 8.542-2.223 14.233-.978 26.088 10.27 26.088 24.297 0 7.996-3.859 15.097-9.807 19.533-2.624 1.955-4.127 5.063-4.127 8.336 0 1.791.463 3.53 1.307 5.063.833 1.523 2.058 2.84 3.581 3.798 8.097 5.093 13.479 14.108 13.479 24.378z" fill="#dff6fd"/><path d="m97.339 111.976h-20.582c0-7.572-3.041-14.865-8.339-20.258-5.019-5.109-7.356-10.215-5.862-17.769.917-4.637 3.947-6.637 6.209-10.403 2.303-3.833 3.558-8.199 3.558-12.678 0-9.766-5.753-18.194-14.047-22.074 2.635-1.235 5.516-2.017 8.542-2.223 14.233-.978 26.088 10.27 26.088 24.297 0 7.996-3.859 15.097-9.807 19.533-2.624 1.955-4.127 5.063-4.127 8.336 0 1.791.463 3.53 1.307 5.063.833 1.523 2.058 2.84 3.581 3.798 8.097 5.092 13.479 14.107 13.479 24.378z" fill="#dff6fd"/><path d="m414.686 273.036c0-10.275 5.384-19.287 13.482-24.382 3.047-1.917 4.896-5.264 4.896-8.864v-.001c0-3.306-1.569-6.406-4.211-8.394-6.427-4.837-10.383-12.78-9.633-21.6 1.007-11.843 10.678-21.345 22.536-22.163 14.233-.982 26.083 10.273 26.083 24.295 0 7.997-3.855 15.092-9.808 19.532-2.621 1.955-4.127 5.062-4.127 8.332 0 3.6 1.849 6.947 4.896 8.864 8.098 5.095 13.482 14.108 13.482 24.382h-57.596z" fill="#f2fbff"/><path d="m472.276 273.034h-20.582c0-7.572-3.041-14.865-8.339-20.258-5.019-5.109-7.356-10.215-5.862-17.769.917-4.637 3.947-6.637 6.209-10.403 2.303-3.833 3.557-8.199 3.558-12.678 0-9.766-5.753-18.194-14.047-22.074 2.635-1.235 5.516-2.017 8.542-2.223 14.233-.978 26.088 10.27 26.088 24.297 0 7.996-3.859 15.097-9.807 19.533-2.624 1.955-4.127 5.063-4.127 8.336 0 1.791.463 3.53 1.307 5.063.833 1.523 2.058 2.84 3.581 3.798 8.097 5.092 13.479 14.107 13.479 24.378z" fill="#dff6fd"/><g><g><path d="m218.948 41.824h-90.09c-4.263 0-7.718-3.455-7.718-7.718s3.456-7.718 7.718-7.718h90.09c4.263 0 7.718 3.455 7.718 7.718s-3.456 7.718-7.718 7.718z" fill="#01d0fb"/></g><g><path d="m218.948 76.961h-28.39c-4.263 0-7.718-3.455-7.718-7.718s3.456-7.718 7.718-7.718h28.39c4.263 0 7.718 3.455 7.718 7.718s-3.456 7.718-7.718 7.718z" fill="#01d0fb"/></g><g><path d="m154.648 76.961h-25.79c-4.263 0-7.718-3.455-7.718-7.718s3.456-7.718 7.718-7.718h25.79c4.263 0 7.718 3.455 7.718 7.718s-3.455 7.718-7.718 7.718z" fill="#01d0fb"/></g><g><path d="m218.948 112.1h-90.09c-4.263 0-7.718-3.455-7.718-7.718s3.456-7.718 7.718-7.718h90.09c4.263 0 7.718 3.455 7.718 7.718s-3.456 7.718-7.718 7.718z" fill="#01d0fb"/></g></g><g><g><path d="m218.948 363.945h-45.045c-4.263 0-7.718-3.455-7.718-7.718s3.456-7.718 7.718-7.718h45.045c4.263 0 7.718 3.455 7.718 7.718s-3.456 7.718-7.718 7.718z" fill="#01d0fb"/></g><g><path d="m138.37 363.945h-9.512c-4.263 0-7.718-3.455-7.718-7.718s3.456-7.718 7.718-7.718h9.512c4.263 0 7.718 3.455 7.718 7.718.001 4.263-3.455 7.718-7.718 7.718z" fill="#01d0fb"/></g><g><path d="m218.948 399.082h-45.045c-4.263 0-7.718-3.455-7.718-7.718s3.456-7.718 7.718-7.718h45.045c4.263 0 7.718 3.455 7.718 7.718s-3.456 7.718-7.718 7.718z" fill="#01d0fb"/></g><g><path d="m138.37 399.082h-9.512c-4.263 0-7.718-3.455-7.718-7.718s3.456-7.718 7.718-7.718h9.512c4.263 0 7.718 3.455 7.718 7.718s-3.455 7.718-7.718 7.718z" fill="#01d0fb"/></g><g><path d="m218.948 434.219h-45.045c-4.263 0-7.718-3.455-7.718-7.718s3.456-7.718 7.718-7.718h45.045c4.263 0 7.718 3.455 7.718 7.718s-3.456 7.718-7.718 7.718z" fill="#01d0fb"/></g><g><path d="m138.37 434.219h-9.512c-4.263 0-7.718-3.455-7.718-7.718s3.456-7.718 7.718-7.718h9.512c4.263 0 7.718 3.455 7.718 7.718s-3.455 7.718-7.718 7.718z" fill="#01d0fb"/></g></g><g><g><path d="m331.059 202.885h-37.981c-4.263 0-7.718-3.455-7.718-7.718s3.455-7.718 7.718-7.718h37.981c4.263 0 7.718 3.455 7.718 7.718.001 4.262-3.455 7.718-7.718 7.718z" fill="#97d729"/></g><g><path d="m383.168 202.885h-16.162c-4.263 0-7.718-3.455-7.718-7.718s3.455-7.718 7.718-7.718h16.162c4.263 0 7.718 3.455 7.718 7.718 0 4.262-3.455 7.718-7.718 7.718z" fill="#97d729"/></g><g><path d="m383.168 238.022h-90.09c-4.263 0-7.718-3.455-7.718-7.718s3.455-7.718 7.718-7.718h90.09c4.263 0 7.718 3.455 7.718 7.718s-3.455 7.718-7.718 7.718z" fill="#97d729"/></g><g><path d="m383.168 273.159h-90.09c-4.263 0-7.718-3.455-7.718-7.718s3.455-7.718 7.718-7.718h90.09c4.263 0 7.718 3.455 7.718 7.718s-3.455 7.718-7.718 7.718z" fill="#97d729"/></g></g></g></svg>